<?xml version="1.0" standalone="no"?>
<!DOCTYPE svg PUBLIC "-//W3C//DTD SVG 20010904//EN"
 "http://www.w3.org/TR/2001/REC-SVG-20010904/DTD/svg10.dtd">
<svg version="1.0" xmlns="http://www.w3.org/2000/svg"
 width="1244.000000pt" height="1244.000000pt" viewBox="0 0 1244.000000 1244.000000"
 preserveAspectRatio="xMidYMid meet">
<metadata>
Created by potrace 1.14, written by Peter Selinger 2001-2017
</metadata>
<g transform="translate(0.000000,1244.000000) scale(0.100000,-0.100000)"
fill="#000000" stroke="none">
<path d="M1921 6208 l-1 -6208 4300 0 4300 0 0 6189 c0 3404 -3 6197 -6 6205
-5 13 -9 14 -20 5 -11 -9 -14 -9 -14 0 0 7 -5 9 -10 6 -6 -4 -8 -12 -4 -18 3
-7 -1 -4 -9 6 -10 12 -17 15 -22 7 -5 -8 -10 -8 -20 0 -10 8 -15 8 -20 -1 -6
-8 -10 -7 -16 2 -6 9 -9 10 -9 2 0 -11 -48 -9 -59 3 -2 2 -11 -1 -18 -8 -11
-9 -16 -9 -23 1 -5 9 -10 10 -14 2 -4 -6 -12 -11 -17 -11 -6 0 -7 6 -3 13 5 8
2 8 -9 -2 -13 -10 -17 -10 -17 -1 0 10 -3 10 -14 1 -9 -8 -16 -8 -20 -2 -7 10
-46 11 -46 1 0 -4 -7 -7 -15 -7 -8 0 -15 3 -15 7 0 3 -9 6 -19 6 -11 0 -17 -4
-15 -8 3 -4 0 -8 -5 -8 -6 0 -11 4 -11 9 0 10 -19 9 -37 -2 -8 -5 -13 -3 -13
3 0 6 -5 8 -10 5 -6 -4 -8 -12 -4 -18 3 -7 -1 -4 -9 6 -10 12 -17 15 -22 7 -5
-8 -10 -8 -20 0 -10 8 -15 8 -20 -1 -6 -8 -10 -7 -16 2 -6 9 -9 10 -9 2 0 -11
-48 -9 -59 3 -2 2 -11 -1 -18 -8 -11 -9 -16 -9 -23 1 -5 9 -10 10 -14 2 -4 -6
-12 -11 -17 -11 -6 0 -7 6 -3 13 5 8 2 8 -9 -2 -13 -10 -17 -10 -17 -1 0 10
-3 10 -14 1 -9 -8 -16 -8 -20 -2 -7 10 -46 11 -46 1 0 -4 -7 -7 -15 -7 -8 0
-15 3 -15 7 0 3 -9 6 -19 6 -11 0 -17 -4 -15 -8 3 -4 0 -8 -5 -8 -6 0 -11 4
-11 9 0 10 -19 9 -37 -2 -8 -5 -13 -3 -13 3 0 6 -5 8 -10 5 -6 -4 -8 -12 -4
-18 3 -7 -1 -4 -9 6 -10 12 -17 15 -22 7 -5 -8 -10 -8 -20 0 -10 8 -15 8 -20
-1 -6 -8 -10 -7 -16 2 -6 9 -9 10 -9 2 0 -11 -48 -9 -59 3 -2 2 -11 -1 -18 -8
-11 -9 -16 -9 -23 1 -5 9 -10 10 -14 2 -4 -6 -12 -11 -17 -11 -6 0 -7 6 -3 13
5 8 2 8 -9 -2 -13 -10 -17 -10 -17 -1 0 10 -3 10 -14 1 -9 -8 -16 -8 -20 -2
-7 10 -46 11 -46 1 0 -4 -7 -7 -15 -7 -8 0 -15 3 -15 7 0 3 -9 6 -19 6 -11 0
-17 -4 -15 -8 3 -4 0 -8 -5 -8 -6 0 -11 4 -11 9 0 10 -19 9 -37 -2 -8 -5 -13
-3 -13 3 0 6 -5 8 -10 5 -6 -4 -8 -12 -4 -18 3 -7 -1 -4 -9 6 -10 12 -17 15
-22 7 -5 -8 -10 -8 -20 0 -10 8 -15 8 -20 -1 -6 -8 -10 -7 -16 2 -6 9 -9 10
-9 2 0 -11 -48 -9 -59 3 -2 2 -11 -1 -18 -8 -11 -9 -16 -9 -23 1 -5 9 -10 10
-14 2 -4 -6 -12 -11 -17 -11 -6 0 -7 6 -3 13 5 8 2 8 -9 -2 -13 -10 -17 -10
-17 -1 0 10 -3 10 -14 1 -9 -8 -16 -8 -20 -2 -7 10 -46 11 -46 1 0 -4 -7 -7
-15 -7 -8 0 -15 3 -15 7 0 3 -9 6 -19 6 -11 0 -17 -4 -15 -8 3 -4 0 -8 -5 -8
-6 0 -11 4 -11 9 0 10 -19 9 -37 -2 -8 -5 -13 -3 -13 3 0 6 -5 8 -10 5 -6 -4
-8 -12 -4 -18 3 -7 -1 -4 -9 6 -10 12 -17 15 -22 7 -5 -8 -10 -8 -20 0 -10 8
-15 8 -20 -1 -6 -8 -10 -7 -16 2 -6 9 -9 10 -9 2 0 -11 -48 -9 -59 3 -2 2 -11
-1 -18 -8 -11 -9 -16 -9 -23 1 -5 9 -10 10 -14 2 -4 -6 -12 -11 -17 -11 -6 0
-7 6 -3 13 5 8 2 8 -9 -2 -13 -10 -17 -10 -17 -1 0 10 -3 10 -14 1 -9 -8 -16
-8 -20 -2 -7 10 -46 11 -46 1 0 -4 -7 -7 -15 -7 -8 0 -15 3 -15 7 0 3 -9 6
-19 6 -11 0 -17 -4 -15 -8 3 -4 0 -8 -5 -8 -6 0 -11 4 -11 9 0 10 -19 9 -37
-2 -8 -5 -13 -3 -13 3 0 6 -5 8 -10 5 -6 -4 -8 -12 -4 -18 3 -7 -1 -4 -9 6
-10 12 -17 15 -22 7 -5 -8 -10 -8 -20 0 -10 8 -15 8 -20 -1 -6 -8 -10 -7 -16
2 -6 9 -9 10 -9 2 0 -11 -48 -9 -59 3 -2 2 -11 -1 -18 -8 -11 -9 -16 -9 -23 1
-5 9 -10 10 -14 2 -4 -6 -12 -11 -17 -11 -6 0 -7 6 -3 13 5 8 2 8 -9 -2 -13
-10 -17 -10 -17 -1 0 10 -3 10 -14 1 -9 -8 -16 -8 -20 -2 -7 10 -46 11 -46 1
0 -4 -7 -7 -15 -7 -8 0 -15 3 -15 7 0 3 -9 6 -19 6 -11 0 -17 -4 -15 -8 3 -4
0 -8 -5 -8 -6 0 -11 4 -11 9 0 10 -19 9 -37 -2 -8 -5 -13 -3 -13 3 0 6 -5 8
-10 5 -6 -4 -8 -12 -4 -18 3 -7 -1 -4 -9 6 -10 12 -17 15 -22 7 -5 -8 -10 -8
-20 0 -10 8 -15 8 -20 -1 -6 -8 -10 -7 -16 2 -6 9 -9 10 -9 2 0 -11 -48 -9
-59 3 -2 2 -11 -1 -18 -8 -11 -9 -16 -9 -23 1 -5 9 -10 10 -14 2 -4 -6 -12
-11 -17 -11 -6 0 -7 6 -3 13 5 8 2 8 -9 -2 -13 -10 -17 -10 -17 -1 0 10 -3 10
-14 1 -9 -8 -16 -8 -20 -2 -7 10 -46 11 -46 1 0 -4 -7 -7 -15 -7 -8 0 -15 3
-15 7 0 3 -9 6 -19 6 -11 0 -17 -4 -15 -8 3 -4 0 -8 -5 -8 -6 0 -11 4 -11 9 0
10 -19 9 -37 -2 -8 -5 -13 -3 -13 3 0 6 -5 8 -10 5 -6 -4 -8 -12 -4 -18 3 -7
-1 -4 -9 6 -10 12 -17 15 -22 7 -5 -8 -10 -8 -20 0 -10 8 -15 8 -20 -1 -6 -8
-10 -7 -16 2 -6 9 -9 10 -9 2 0 -11 -48 -9 -59 3 -2 2 -11 -1 -18 -8 -11 -9
-16 -9 -23 1 -5 9 -10 10 -14 2 -4 -6 -12 -11 -17 -11 -6 0 -7 6 -3 13 5 8 2
8 -9 -2 -13 -10 -17 -10 -17 -1 0 10 -3 10 -14 1 -9 -8 -16 -8 -20 -2 -7 10
-46 11 -46 1 0 -4 -7 -7 -15 -7 -8 0 -15 3 -15 7 0 3 -9 6 -19 6 -11 0 -17 -4
-15 -8 3 -4 0 -8 -5 -8 -6 0 -11 4 -11 9 0 10 -19 9 -37 -2 -8 -5 -13 -3 -13
3 0 6 -5 8 -10 5 -6 -4 -8 -12 -4 -18 3 -7 -1 -4 -9 6 -10 12 -17 15 -22 7 -5
-8 -10 -8 -20 0 -10 8 -15 8 -20 -1 -6 -8 -10 -7 -16 2 -6 9 -9 10 -9 2 0 -11
-48 -9 -59 3 -2 2 -11 -1 -18 -8 -11 -9 -16 -9 -23 1 -5 9 -10 10 -14 2 -4 -6
-12 -11 -17 -11 -6 0 -7 6 -3 13 5 8 2 8 -9 -2 -13 -10 -17 -10 -17 -1 0 10
-3 10 -14 1 -9 -8 -16 -8 -20 -2 -7 10 -46 11 -46 1 0 -4 -7 -7 -15 -7 -8 0
-15 3 -15 7 0 3 -9 6 -19 6 -11 0 -17 -4 -15 -8 3 -4 0 -8 -5 -8 -6 0 -11 4
-11 9 0 10 -19 9 -37 -2 -8 -5 -13 -3 -13 3 0 6 -5 8 -10 5 -6 -4 -8 -12 -4
-18 3 -7 -1 -4 -9 6 -10 12 -17 15 -22 7 -5 -8 -10 -8 -20 0 -10 8 -15 8 -20
-1 -6 -8 -10 -7 -16 2 -6 9 -9 10 -9 2 0 -11 -48 -9 -59 3 -2 2 -11 -1 -18 -8
-11 -9 -16 -9 -23 1 -5 9 -10 10 -14 2 -4 -6 -12 -11 -17 -11 -6 0 -7 6 -3 13
5 8 2 8 -9 -2 -13 -10 -17 -10 -17 -1 0 10 -3 10 -14 1 -9 -8 -16 -8 -20 -2
-7 10 -46 11 -46 1 0 -4 -7 -7 -15 -7 -8 0 -15 3 -15 7 0 3 -9 6 -19 6 -11 0
-17 -4 -15 -8 3 -4 0 -8 -5 -8 -6 0 -11 4 -11 9 0 10 -19 9 -37 -2 -8 -5 -13
-3 -13 3 0 6 -5 8 -10 5 -6 -4 -8 -12 -4 -18 3 -7 -1 -4 -9 6 -10 12 -17 15
-22 7 -5 -8 -10 -8 -20 0 -10 8 -15 8 -20 -1 -6 -8 -10 -7 -16 2 -6 9 -9 10
-9 2 0 -11 -48 -9 -59 3 -2 2 -11 -1 -18 -8 -11 -9 -16 -9 -23 1 -5 9 -10 10
-14 2 -4 -6 -12 -11 -17 -11 -6 0 -7 6 -3 13 5 8 2 8 -9 -2 -13 -10 -17 -10
-17 -1 0 10 -3 10 -14 1 -9 -8 -16 -8 -20 -2 -7 10 -46 11 -46 1 0 -4 -7 -7
-15 -7 -8 0 -15 3 -15 7 0 3 -9 6 -19 6 -11 0 -17 -4 -15 -8 3 -4 0 -8 -5 -8
-6 0 -11 4 -11 9 0 10 -19 9 -37 -2 -8 -5 -13 -3 -13 3 0 6 -5 8 -10 5 -6 -4
-8 -12 -4 -18 3 -7 -1 -4 -9 6 -10 12 -17 15 -22 7 -5 -8 -10 -8 -20 0 -10 8
-15 8 -20 -1 -6 -8 -10 -7 -16 2 -6 9 -9 10 -9 2 0 -11 -48 -9 -59 3 -2 2 -11
-1 -18 -8 -11 -9 -16 -9 -23 1 -5 9 -10 10 -14 2 -4 -6 -12 -11 -17 -11 -6 0
-7 6 -3 13 5 8 2 8 -9 -2 -13 -10 -17 -10 -17 -1 0 10 -3 10 -14 1 -9 -8 -16
-8 -20 -2 -7 10 -46 11 -46 1 0 -4 -7 -7 -15 -7 -8 0 -15 3 -15 7 0 3 -9 6
-19 6 -11 0 -17 -4 -15 -8 3 -4 0 -8 -5 -8 -6 0 -11 4 -11 9 0 10 -19 9 -37
-2 -8 -5 -13 -3 -13 3 0 6 -5 8 -10 5 -6 -4 -8 -12 -4 -18 3 -7 -1 -4 -9 6
-10 12 -17 15 -22 7 -5 -8 -10 -8 -20 0 -10 8 -15 8 -20 -1 -6 -8 -10 -7 -16
2 -6 9 -9 10 -9 2 0 -11 -48 -9 -59 3 -2 2 -11 -1 -18 -8 -11 -9 -16 -9 -23 1
-5 9 -10 10 -14 2 -4 -6 -12 -11 -17 -11 -6 0 -7 6 -3 13 5 8 2 8 -9 -2 -13
-10 -17 -10 -17 -1 0 10 -3 10 -14 1 -9 -8 -16 -8 -20 -2 -7 10 -46 11 -46 1
0 -4 -7 -7 -15 -7 -8 0 -15 3 -15 7 0 3 -9 6 -19 6 -11 0 -17 -4 -15 -8 3 -4
0 -8 -5 -8 -6 0 -11 4 -11 9 0 10 -19 9 -37 -2 -8 -5 -13 -3 -13 3 0 6 -5 8
-10 5 -6 -4 -8 -12 -4 -18 3 -7 -1 -4 -9 6 -10 12 -17 15 -22 7 -5 -8 -10 -8
-20 0 -10 8 -15 8 -20 -1 -6 -8 -10 -7 -16 2 -6 9 -9 10 -9 2 0 -11 -48 -9
-59 3 -2 2 -11 -1 -18 -8 -11 -9 -16 -9 -23 1 -5 9 -10 10 -14 2 -4 -6 -12
-11 -17 -11 -6 0 -7 6 -3 13 5 8 2 8 -9 -2 -13 -10 -17 -10 -17 -1 0 10 -3 10
-14 1 -9 -8 -16 -8 -20 -2 -7 10 -46 11 -46 1 0 -4 -7 -7 -15 -7 -8 0 -15 3
-15 7 0 3 -9 6 -19 6 -11 0 -17 -4 -15 -8 3 -4 0 -8 -5 -8 -6 0 -11 4 -11 9 0
10 -19 9 -37 -2 -8 -5 -13 -3 -13 3 0 6 -5 8 -10 5 -6 -4 -8 -12 -4 -18 3 -7
-1 -4 -9 6 -10 12 -17 15 -22 7 -5 -8 -10 -8 -20 0 -10 8 -15 8 -20 -1 -6 -8
-10 -7 -16 2 -6 9 -9 10 -9 2 0 -11 -48 -9 -59 3 -2 2 -11 -1 -18 -8 -11 -9
-16 -9 -23 1 -5 9 -10 10 -14 2 -4 -6 -12 -11 -17 -11 -6 0 -7 6 -3 13 5 8 2
8 -9 -2 -13 -10 -17 -10 -17 -1 0 10 -3 10 -14 1 -9 -8 -16 -8 -20 -2 -7 10
-46 11 -46 1 0 -4 -7 -7 -15 -7 -8 0 -15 3 -15 7 0 3 -9 6 -19 6 -11 0 -17 -4
-15 -8 3 -4 0 -8 -5 -8 -6 0 -11 4 -11 9 0 10 -19 9 -37 -2 -8 -5 -13 -3 -13
3 0 6 -5 8 -10 5 -6 -4 -8 -12 -4 -18 3 -7 -1 -4 -9 6 -10 12 -17 15 -22 7 -5
-8 -10 -8 -20 0 -10 8 -15 8 -20 -1 -6 -8 -10 -7 -16 2 -6 9 -9 10 -9 2 0 -11
-48 -9 -59 3 -2 2 -11 -1 -18 -8 -11 -9 -16 -9 -23 1 -5 9 -10 10 -14 2 -4 -6
-12 -11 -17 -11 -6 0 -7 6 -3 13 5 8 2 8 -9 -2 -13 -10 -17 -10 -17 -1 0 10
-3 10 -14 1 -9 -8 -16 -8 -20 -2 -7 10 -46 11 -46 1 0 -4 -7 -7 -15 -7 -8 0
-15 3 -15 7 0 3 -9 6 -19 6 -11 0 -17 -4 -15 -8 3 -4 0 -8 -5 -8 -6 0 -11 4
-11 9 0 10 -19 9 -37 -2 -8 -5 -13 -3 -13 3 0 6 -5 8 -10 5 -6 -4 -8 -12 -4
-18 3 -7 -1 -4 -9 6 -10 12 -17 15 -22 7 -5 -8 -10 -8 -20 0 -10 8 -15 8 -20
-1 -6 -8 -10 -7 -16 2 -6 9 -9 10 -9 2 0 -11 -48 -9 -59 3 -2 2 -11 -1 -18 -8
-11 -9 -16 -9 -23 1 -5 9 -10 10 -14 2 -4 -6 -12 -11 -17 -11 -6 0 -7 6 -3 13
6 9 4 9 -8 -1 -13 -10 -17 -10 -20 0 -4 10 -8 10 -21 -1 -14 -11 -17 -11 -18
0 0 8 -4 5 -9 -6 -6 -14 -9 -15 -9 -5 -1 9 -10 16 -21 17 -11 1 -18 -2 -15 -7
3 -5 1 -12 -5 -15 -6 -4 -10 -3 -9 2 3 20 -2 25 -16 13 -12 -10 -15 -10 -15 1
0 11 -2 11 -10 -1 -8 -12 -10 -12 -10 -1 0 11 -3 11 -15 1 -12 -10 -15 -10
-15 1 0 11 -2 11 -10 -1 -8 -12 -11 -13 -19 -1 -7 11 -9 11 -14 0 -4 -10 -6
-10 -6 -1 -1 6 -6 12 -12 12 -5 0 -7 -6 -3 -12 6 -10 4 -10 -8 0 -14 11 -18
10 -27 -5 -8 -14 -10 -15 -11 -3 0 9 -9 16 -19 17 -14 1 -18 -3 -15 -15 5 -14
4 -14 -6 1 -9 14 -15 16 -26 6 -11 -9 -14 -8 -14 2 0 11 -2 11 -10 -1 -8 -12
-10 -12 -10 -1 0 11 -3 11 -15 1 -12 -10 -15 -10 -15 1 0 11 -2 11 -10 -1 -9
-13 -10 -13 -10 0 0 13 -1 13 -10 0 -8 -12 -10 -12 -10 -1 0 11 -3 11 -15 1
-12 -10 -15 -10 -15 1 0 11 -2 11 -10 -1 -5 -8 -10 -10 -10 -4 0 6 -7 11 -15
11 -8 0 -12 -4 -9 -9 7 -11 -3 -10 -28 3 -15 8 -19 8 -14 0 4 -6 3 -11 -3 -11
-5 0 -12 6 -14 13 -3 6 -6 -2781 -6 -6195z m1049 6188 c0 -2 -7 -7 -16 -10 -8
-3 -12 -2 -9 4 6 10 25 14 25 6z m480 0 c0 -2 -7 -7 -16 -10 -8 -3 -12 -2 -9
4 6 10 25 14 25 6z m480 0 c0 -2 -7 -7 -16 -10 -8 -3 -12 -2 -9 4 6 10 25 14
25 6z m480 0 c0 -2 -7 -7 -16 -10 -8 -3 -12 -2 -9 4 6 10 25 14 25 6z m480 0
c0 -2 -7 -7 -16 -10 -8 -3 -12 -2 -9 4 6 10 25 14 25 6z m480 0 c0 -2 -7 -7
-16 -10 -8 -3 -12 -2 -9 4 6 10 25 14 25 6z m480 0 c0 -2 -7 -7 -16 -10 -8 -3
-12 -2 -9 4 6 10 25 14 25 6z m480 0 c0 -2 -7 -7 -16 -10 -8 -3 -12 -2 -9 4 6
10 25 14 25 6z m480 0 c0 -2 -7 -7 -16 -10 -8 -3 -12 -2 -9 4 6 10 25 14 25 6z
m480 0 c0 -2 -7 -7 -16 -10 -8 -3 -12 -2 -9 4 6 10 25 14 25 6z m480 0 c0 -2
-7 -7 -16 -10 -8 -3 -12 -2 -9 4 6 10 25 14 25 6z m480 0 c0 -2 -7 -7 -16 -10
-8 -3 -12 -2 -9 4 6 10 25 14 25 6z m480 0 c0 -2 -7 -7 -16 -10 -8 -3 -12 -2
-9 4 6 10 25 14 25 6z m480 0 c0 -2 -7 -7 -16 -10 -8 -3 -12 -2 -9 4 6 10 25
14 25 6z m480 0 c0 -2 -7 -7 -16 -10 -8 -3 -12 -2 -9 4 6 10 25 14 25 6z m480
0 c0 -2 -7 -7 -16 -10 -8 -3 -12 -2 -9 4 6 10 25 14 25 6z"/>
</g>
</svg>
