<?xml version="1.0" standalone="no"?>
<!DOCTYPE svg PUBLIC "-//W3C//DTD SVG 20010904//EN"
 "http://www.w3.org/TR/2001/REC-SVG-20010904/DTD/svg10.dtd">
<svg version="1.0" xmlns="http://www.w3.org/2000/svg"
 width="324.000000pt" height="324.000000pt" viewBox="0 0 324.000000 324.000000"
 preserveAspectRatio="xMidYMid meet">
<metadata>
Created by potrace 1.14, written by Peter Selinger 2001-2017
</metadata>
<g transform="translate(0.000000,324.000000) scale(0.100000,-0.100000)"
fill="#000000" stroke="none">
<path d="M1224 2853 c-39 -42 -119 -170 -153 -246 -32 -71 -81 -213 -86 -250
-35 -248 -46 -427 -30 -476 10 -32 41 -25 72 17 59 79 232 240 339 315 61 42
115 77 118 77 4 0 26 13 49 28 40 27 123 69 247 125 30 13 93 37 140 52 47 15
93 31 103 36 9 5 44 12 77 16 69 7 88 22 72 57 -7 16 -56 46 -164 100 -85 42
-159 76 -166 76 -7 0 -31 9 -55 19 -83 37 -355 91 -465 91 -59 0 -64 -2 -98
-37z"/>
<path d="M908 2568 c-230 -144 -458 -373 -547 -550 -17 -33 -2 -98 39 -168 14
-25 29 -52 32 -61 27 -72 271 -340 358 -394 25 -15 50 -33 56 -41 6 -7 55 -36
110 -63 101 -52 131 -54 102 -8 -14 21 -44 98 -53 137 -45 189 -56 253 -62
365 -16 273 -3 473 42 635 9 30 18 69 21 85 7 44 14 67 26 93 26 51 -7 43
-124 -30z"/>
<path d="M2115 2518 c-75 -14 -256 -58 -290 -70 -122 -45 -335 -164 -335 -187
0 -9 58 -21 106 -21 31 0 123 -24 154 -40 9 -4 30 -11 49 -15 48 -10 214 -85
301 -135 41 -23 84 -48 95 -54 108 -60 308 -219 427 -340 37 -38 69 -67 71
-65 8 11 -14 306 -28 375 -9 44 -18 94 -21 112 -2 19 -15 66 -29 105 -14 40
-27 81 -30 91 -2 11 -18 47 -35 82 -16 35 -30 66 -30 69 0 3 -11 23 -25 43
-20 30 -35 39 -77 49 -61 14 -230 15 -303 1z"/>
<path d="M2062 2003 c25 -50 49 -110 53 -133 3 -16 10 -41 15 -55 37 -98 55
-257 55 -495 0 -263 -11 -363 -65 -569 -17 -63 -30 -115 -30 -117 0 -4 63 28
75 38 6 5 46 31 90 59 44 28 85 56 90 62 6 7 27 25 47 40 110 82 269 259 346
387 31 51 33 58 22 90 -66 193 -259 433 -465 577 -117 82 -249 147 -233 116z"/>
<path d="M430 1563 c0 -98 15 -224 39 -328 5 -22 14 -63 19 -91 10 -48 17 -69
49 -142 8 -18 16 -40 18 -50 1 -9 17 -44 34 -77 17 -33 31 -65 31 -71 0 -90
404 -81 675 15 116 42 292 136 323 174 11 12 5 16 -35 21 -120 17 -246 52
-315 87 -10 5 -23 9 -30 9 -30 0 -355 175 -413 222 -11 9 -65 50 -120 91 -94
70 -255 221 -255 239 0 4 -4 8 -10 8 -6 0 -10 -42 -10 -107z"/>
<path d="M2109 1348 c-45 -66 -237 -245 -324 -303 -50 -33 -92 -63 -95 -67 -6
-8 -49 -32 -180 -100 -41 -22 -79 -44 -84 -49 -6 -5 -17 -9 -26 -9 -9 0 -38
-11 -66 -24 -63 -31 -247 -93 -299 -101 -82 -13 -96 -25 -47 -44 15 -6 59 -28
97 -49 201 -111 520 -201 716 -202 56 0 57 1 90 45 19 25 42 55 52 67 44 54
151 300 163 375 3 21 8 41 10 44 8 13 33 159 38 225 7 81 -3 224 -15 224 -4 0
-18 -15 -30 -32z"/>
</g>
</svg>
