<?xml version="1.0" encoding="UTF-8" standalone="no"?>
<!-- Created with Inkscape (http://www.inkscape.org/) -->

<svg
   version="1.1"
   id="svg2"
   width="1578"
   height="241"
   viewBox="0 0 1578 241"
   xmlns="http://www.w3.org/2000/svg"
   xmlns:svg="http://www.w3.org/2000/svg">
  <defs
     id="defs6" />
  <g
     id="g8">
    <rect
       style="fill:#ffffff;fill-opacity:1;stroke:none;stroke-width:1.39087;stroke-linecap:round;stroke-linejoin:round"
       id="rect4796"
       width="1577.3064"
       height="241"
       x="0"
       y="0" />
    <path
       style="fill:#548235;fill-opacity:1"
       d="M 0,120.5 V 0 h 788 789.3064 l 0,241 H 788.65562 0 Z m 449.14203,106.75 c -0.33136,-10.41338 -0.21981,-11.25312 1.5,-11.29192 3.81296,-0.086 8.37445,-3.69927 15.09625,-11.95808 18.41664,-22.6278 33.78681,-53.24747 36.28763,-72.29038 2.04354,-15.5609 1.11719,-24.58205 -4.99736,-48.66616 -1.53562,-6.04852 -6.19549,-14.54474 -11.15327,-20.33548 -5.66655,-6.61858 -19.89588,-15.49391 -27.4604,-17.12801 -2.87924,-0.62198 -3.16284,-1.08831 -4.25,-6.98851 C 453.5242,35.11433 453,30.95394 453,29.34615 c 0,-1.6078 -0.92649,-4.70591 -2.05886,-6.88471 -1.62927,-3.13486 -1.99441,-5.42203 -1.75,-10.96144 C 449.36101,7.65 449.16254,4.3875 448.75,4.25 448.3375,4.1125 348.1,4 226,4 H 4 v 116.99744 116.99743 l 191.25,0.262 c 105.1875,0.1441 205.425,0.25775 222.75,0.25256 l 31.5,-0.009 -0.35797,-11.25 z m -6.08518,-14.85562 C 440.33409,210.10333 431,196.90987 431,195.35239 c 0,-0.32189 -2.925,-5.2893 -6.5,-11.03869 -3.575,-5.7494 -6.5,-10.62105 -6.5,-10.8259 0,-0.20485 -2.86437,-5.27068 -6.36528,-11.25742 -7.92109,-13.54549 -12.69117,-25.78399 -16.46719,-42.24956 -1.29883,-5.66361 1.49706,-23.38729 5.27096,-33.41362 5.94101,-15.78382 17.67988,-28.56956 33.327,-36.2991 l 9.73451,-4.80876 0.58764,-4.38327 c 0.81767,-6.09913 -0.41111,-11.72624 -3.21304,-14.71394 L 438.5,23.8301 440.86078,21.91505 C 442.15922,20.86177 444.29672,20 445.61078,20 H 448 l -0.12476,95.25 c -0.0826,63.09842 -0.44213,93.39348 -1.06499,89.75 -0.51714,-3.025 -0.93052,-8.15299 -0.91863,-11.39553 l 0.0216,-5.89554 -2.93351,2.81048 c -1.61343,1.54577 -3.41085,4.25683 -3.99426,6.02459 -0.90026,2.7278 -0.71667,3.79979 1.21335,7.08505 3.04241,5.17876 4.98253,7.37095 6.52341,7.37095 0.70277,0 1.27776,0.9 1.27776,2 0,2.67081 -1.22816,2.52034 -4.94315,-0.60562 z m -5.56816,-18.35876 c 0.34291,-1.08041 2.62324,-3.72464 5.06739,-5.87607 L 447,184.24786 446.991,175.87393 C 446.9799,164.84454 445.9891,157 444.60755,157 c -1.68077,0 -11.20263,9.31274 -12.89233,12.60918 -0.81499,1.58995 -1.79216,5.60564 -2.1715,8.92376 -0.64195,5.61518 -0.46233,6.42882 2.594,11.75 3.55205,6.18424 4.39222,6.77346 5.35097,3.75268 z M 427,176.81572 c 0,-5.73441 3.79311,-11.62036 11.63775,-18.05883 L 446,152.71433 v -6.71759 c 0,-3.69468 0.29335,-8.85782 0.65189,-11.47364 0.61208,-4.46565 0.53576,-4.69096 -1.25,-3.69011 -1.04604,0.58626 -6.30071,5.33582 -11.67705,10.55456 -10.17699,9.87868 -12.32591,13.32642 -13.69183,21.9672 -0.71035,4.49364 -0.47599,5.57617 2.33876,10.80302 1.72053,3.19492 3.46573,5.81643 3.87823,5.82559 0.4125,0.009 0.75,-1.41628 0.75,-3.16764 z M 418.02196,160.25 c 0.0545,-6.82741 5.02635,-12.7849 25.76981,-30.8787 l 3.29177,-2.8713 -0.29177,-12.13816 -0.29177,-12.13815 -13.67995,9.13815 c -7.52398,5.02599 -15.04796,10.36708 -16.71996,11.8691 -5.11897,4.59856 -7.38291,10.26544 -7.49831,18.76906 -0.0953,7.01913 0.15198,7.93278 3.856,14.25 2.17677,3.7125 4.31427,6.75 4.75,6.75 0.43572,0 0.8021,-1.2375 0.81418,-2.75 z m -11.35079,-24.83861 c 0.22143,-2.00935 1.05432,-4.91365 1.85086,-6.454 1.11798,-2.16193 1.16658,-2.90535 0.21312,-3.25981 -0.67933,-0.25255 0.0456,-0.96812 1.61093,-1.59016 1.56534,-0.62204 4.71534,-2.64364 7,-4.49246 2.28465,-1.84882 8.65392,-6.32973 14.15392,-9.95758 5.5,-3.62785 11.29267,-7.64651 12.8726,-8.93036 l 2.87261,-2.33427 -0.73649,-14.22426 -0.73648,-14.22426 -7.63612,4.15651 c -16.4681,8.96396 -28.23155,21.47909 -32.56816,34.64926 -0.95078,2.8875 -2.14253,5.25 -2.64833,5.25 -2.66703,0 1.26118,-10.93718 6.69562,-18.64236 5.76788,-8.17796 15.17936,-16.28071 25.46602,-21.9248 4.6303,-2.54056 8.95552,-5.13977 9.6116,-5.77602 1.21524,-1.17851 2.11493,-18.18235 1.01999,-19.2773 -1.06166,-1.06166 -17.02383,7.64321 -22.33361,12.17949 -9.59715,8.1991 -17.5225,22.22983 -21.72883,38.46787 -2.70745,10.45176 -2.647,17.68553 0.25285,30.26181 2.77643,12.04094 3.94969,13.54759 4.7679,6.1227 z M 451.91612,210.75 c -0.46695,-1.39168 -1.27651,-22.75128 -0.86229,-22.75073 1.11836,0.001 6.77043,6.59631 8.36457,9.75976 1.30787,2.59538 1.4076,3.71538 0.48976,5.5 -2.05048,3.98692 -7.46494,9.06191 -7.99204,7.49097 z m 9.53155,-17.64972 c -1.46692,-2.21666 -4.19275,-5.19394 -6.0574,-6.61618 C 452.03804,183.92723 452,183.80907 452,175.95326 v -7.94495 l 8.25,6.10466 c 4.5375,3.35755 9.06632,7.38141 10.06405,8.9419 2.03398,3.18123 1.75647,4.08168 -3.16211,10.26042 l -3.03716,3.81528 z M 66.944982,181.65571 C 42.446932,174.40155 29,154.32392 29,125 29,91.04753 48.27246,67.55482 78.940432,64.12371 c 17.29102,-1.93452 40.241148,3.7415 44.072218,10.89993 1.30189,2.43259 1.26997,10.68366 -0.0445,11.49602 -0.5675,0.35073 -5.18,-1.41892 -10.25,-3.93255 -10.78682,-5.34797 -18.354218,-7.00681 -28.718148,-6.29526 -10.57475,0.72602 -17.84926,3.74831 -25.03516,10.40119 -9.61233,8.89932 -14.38932,21.28455 -14.38932,37.30696 0,25.78087 13.41481,43.54917 35.45242,46.95775 8.08661,1.25076 19.74359,-0.36018 26.222058,-3.62377 l 2.75,-1.38534 v -17.44759 -17.44758 l -14.749998,-0.27674 -14.75,-0.27673 v -5.5 -5.5 l 20.658558,-0.27001 c 17.79788,-0.23262 20.87894,-0.0496 22.25,1.32143 1.37036,1.37035 1.59144,5.06365 1.59144,26.58575 0,14.05789 -0.42009,25.77927 -0.96009,26.78826 -1.21215,2.26491 -8.97463,5.62818 -18.77505,8.13471 -10.850458,2.77508 -27.179948,2.59812 -37.319878,-0.40443 z M 156.22251,181.4433 154,179.88659 v -55.78831 c 0,-53.79152 0.0689,-55.85065 1.92477,-57.5302 1.7329,-1.56825 4.05069,-1.70362 23.25,-1.35791 19.36952,0.34876 21.8582,0.59471 27.13677,2.68178 11.4406,4.52345 16.92852,13.08329 17.03661,26.57302 0.0551,6.87273 -0.33021,8.79582 -2.66348,13.2944 -1.63578,3.15382 -4.42067,6.48564 -6.95626,8.32241 -2.32563,1.68467 -4.22841,3.21757 -4.22841,3.40644 0,0.18888 2.925,1.85335 6.5,3.69883 10.957,5.6562 15.66405,14.89459 14.72222,28.89485 -0.83178,12.3644 -6.40395,20.78618 -17.07333,25.80465 -8.55342,4.02321 -16.49727,5.11345 -37.2583,5.11345 -14.62368,0 -18.35698,-0.28816 -20.16808,-1.5567 z m 48.06675,-13.34128 c 5.89546,-2.85395 9.44702,-7.36704 10.58313,-13.44838 1.90842,-10.21525 -2.31273,-19.70899 -10.5372,-23.69909 -4.26752,-2.07038 -6.62561,-2.39407 -20.08519,-2.75702 L 169,127.7863 v 20.94018 c 0,11.5171 0.3375,21.28768 0.75,21.71239 0.4125,0.42471 7.28043,0.59169 15.26207,0.37105 12.61081,-0.34859 15.13636,-0.70336 19.27719,-2.7079 z M 197.5,114.10996 C 205.17588,110.56731 208,105.60743 208,95.6693 208,87.11929 205.80755,83.23991 199.00314,79.75 194.00972,77.18892 192.79494,77 181.32069,77 H 169 V 96.5 116 l 12.25,-0.022 c 9.76506,-0.0175 13.06141,-0.39645 16.25,-1.86808 z m 60.20896,68.26567 C 257.31903,181.9857 257,155.41667 257,123.33333 V 65 h 7.00799 7.008 l -0.258,58.75 -0.25799,58.75 -6.04104,0.29229 c -3.32257,0.16076 -6.36007,-0.0267 -6.75,-0.41666 z m 46.53249,-0.53418 C 302.42277,180.02277 302.47264,71.60107 304.29385,68 l 1.26433,-2.5 28.47093,-0.2666 c 31.53916,-0.29534 30.98872,-0.40572 30.95562,6.20773 -0.0278,5.54628 0.1705,5.49852 -24.03155,5.7892 L 318.50004,77.5 V 98 118.5 l 21.5,0.5 21.5,0.5 v 5.5 5.5 l -21.73316,0.26946 -21.73315,0.26945 -0.26685,25.73055 -0.26684,25.73054 -6.00855,0.29145 c -3.81166,0.18489 -6.46246,-0.16246 -7.25,-0.95 z m 168.43749,-2.4768 c -1.00158,-1.3361 -3.47658,-3.53622 -5.5,-4.88916 -9.10544,-6.08825 -13.46294,-9.43594 -14.83851,-11.39985 -1.08219,-1.54504 -1.53198,-5.36017 -1.66207,-14.09763 -0.0981,-6.58864 0.11776,-11.97904 0.47968,-11.97867 1.01197,0.001 13.59044,9.91446 19.53146,15.39329 2.91796,2.69095 6.91355,7.31545 8.87909,10.27667 l 3.57372,5.38403 -3.59551,6.42937 c -1.97753,3.53615 -3.92205,6.62779 -4.32115,6.8703 -0.39911,0.24251 -1.54513,-0.65224 -2.54671,-1.98835 z m 8.74094,-21.16914 c -1.81565,-2.76788 -7.56303,-8.25932 -14,-13.37658 -6.00594,-4.7746 -11.93519,-9.4996 -13.17613,-10.5 -2.20295,-1.77597 -2.24058,-2.133 -1.59329,-15.11578 0.7483,-15.00854 0.14757,-14.43541 8.98333,-8.57056 C 475.39081,119.76398 490,135.06274 490,140.33772 c 0,0.77956 0.62649,1.93733 1.39221,2.57282 1.17993,0.97926 1.1867,1.83826 0.0444,5.63395 -1.58057,5.25185 -5.70119,14.47961 -6.43072,14.40102 -0.27822,-0.03 -1.89191,-2.16747 -3.58597,-4.75 z M 493.56597,137 c -1.46807,-4.79104 -6.05501,-10.27857 -14.53187,-17.38504 -11.06142,-9.2732 -14.66414,-11.91321 -21.13897,-15.49025 l -5.32691,-2.94288 -0.27466,-10.84091 C 452.1425,84.37841 451.83248,77.8125 451.60461,75.75 451.37675,73.6875 451.45094,72 451.76949,72 c 0.31855,0 4.21323,1.86854 8.65485,4.15232 15.64466,8.04413 28.4629,19.29552 33.96034,29.80917 2.27874,4.358 2.61284,6.1945 2.59603,14.2701 -0.0106,5.09763 -0.61091,11.51841 -1.33399,14.26841 -1.18882,4.52122 -1.38806,4.76061 -2.08075,2.5 z M 487,91.05536 c -8.17496,-8.37841 -14.41313,-12.8486 -27.18177,-19.4781 L 451.5,67.25842 451.4832,58.87921 c -0.009,-4.60856 0.11127,-8.68667 0.26777,-9.06246 0.39904,-0.95823 8.7863,1.85539 14.749,4.94774 12.0609,6.25498 19.89074,15.85999 24.37278,29.89854 2.90476,9.09823 4.36804,14.43416 3.89627,14.20798 C 494.62107,98.80001 491.125,95.28302 487,91.05536 Z m 225.16203,92.53873 c 10.07092,-1.92953 15.33644,-4.19795 16.70217,-7.19539 1.55134,-3.40481 1.43204,-11.61131 -0.20126,-13.84498 -1.50365,-2.05637 -2.5863,-1.94853 -14.66294,1.46057 -10.07245,2.84334 -22.88273,2.45737 -28.23533,-0.85071 C 681.50681,160.53207 678,153.99269 678,148.68428 V 145 h 25.84501 c 29.31921,0 28.61879,0.19116 29.75817,-8.12151 0.83046,-6.05892 -1.1763,-18.24869 -4.03313,-24.4985 C 722.7801,97.52575 706.37532,89.87444 687.75,92.87481 664.85943,96.56227 652.85714,112.77218 652.85714,140 c 0,24.61446 8.83735,38.1978 28.24749,43.41748 6.98165,1.87747 21.74189,1.9614 31.0574,0.17661 z M 678.26941,125.0281 c 1.26476,-9.42955 9.38584,-15.90672 18.2729,-14.57403 7.32679,1.09872 11.50171,5.71563 12.92734,14.29593 l 0.70615,4.25 h -16.21957 -16.21957 z m 393.89259,58.56599 c 10.071,-1.92953 15.3365,-4.19795 16.7022,-7.19539 1.5513,-3.40481 1.432,-11.61131 -0.2013,-13.84498 -1.5036,-2.05637 -2.5863,-1.94853 -14.6629,1.46057 -10.0724,2.84334 -22.8827,2.45737 -28.2353,-0.85071 -4.2579,-2.63151 -7.7647,-9.17089 -7.7647,-14.4793 V 145 h 25.845 c 29.3192,0 28.6188,0.19116 29.7582,-8.12151 0.8304,-6.05892 -1.1763,-18.24869 -4.0331,-24.4985 -6.79,-14.85424 -23.1948,-22.50555 -41.8201,-19.50518 -22.8906,3.68746 -34.8929,19.89737 -34.8929,47.12519 0,24.61446 8.8374,38.1978 28.2475,43.41748 6.9817,1.87747 21.7419,1.9614 31.0574,0.17661 z m -33.8926,-58.56599 c 1.2648,-9.42955 9.3859,-15.90672 18.2729,-14.57403 7.3268,1.09872 11.5017,5.71563 12.9274,14.29593 l 0.7061,4.25 h -16.2196 -16.2195 z m 107.7717,58.977 c 1.9476,-0.54106 6.0848,-2.51551 9.1939,-4.38767 l 5.6528,-3.40393 0.3061,2.62008 c 0.4477,3.83161 4.0857,5.35113 11.5658,4.83069 3.4429,-0.23954 6.9304,-0.99209 7.75,-1.67234 1.2593,-1.04507 1.4903,-5.84761 1.4903,-30.97788 0,-16.35759 -0.4567,-32.14927 -1.0149,-35.09261 -3.1589,-16.65657 -13.1073,-23.2775 -34.9851,-23.28347 -11.446,-0.003 -19.9746,1.79527 -28.1427,5.93434 -5.8424,2.96055 -6.8573,4.71623 -6.8573,11.86195 0,4.24115 0.4782,6.04397 2.0095,7.57521 1.9224,1.92241 2.1715,1.93819 5.75,0.36435 11.4586,-5.03956 16.9737,-6.56894 23.9182,-6.63272 10.7723,-0.0989 13.7322,2.3864 14.9245,12.53166 l 0.6445,5.48307 -12.8734,0.48528 c -24.7419,0.93268 -36.5135,8.17392 -38.8737,23.91309 -2.0425,13.62056 6.6917,26.74492 19.8984,29.90001 4.6083,1.10092 15.6024,1.07344 19.6431,-0.0491 z m -11.185,-18.5215 c -5.0422,-2.73919 -5.8331,-10.51737 -1.5491,-15.23512 2.7375,-3.01469 7.6153,-4.23619 16.943,-4.2429 l 7.75,-0.006 v 5.79705 c 0,5.38443 -0.2669,6.05638 -3.75,9.44046 -2.0625,2.00388 -5.0168,4.12021 -6.5651,4.70295 -3.8909,1.46444 -9.6711,1.2586 -12.8288,-0.45686 z m 149.185,18.5215 c 1.9476,-0.54106 6.0848,-2.51551 9.1939,-4.38767 l 5.6528,-3.40393 0.3061,2.62008 c 0.4477,3.83161 4.0857,5.35113 11.5658,4.83069 3.4429,-0.23954 6.9304,-0.99209 7.75,-1.67234 1.2593,-1.04507 1.4903,-5.84761 1.4903,-30.97788 0,-16.35759 -0.4567,-32.14927 -1.0149,-35.09261 -3.1589,-16.65657 -13.1073,-23.2775 -34.9851,-23.28347 -11.446,-0.003 -19.9746,1.79527 -28.1427,5.93434 -5.8424,2.96055 -6.8573,4.71623 -6.8573,11.86195 0,4.24115 0.4782,6.04397 2.0095,7.57521 1.9224,1.92241 2.1715,1.93819 5.75,0.36435 11.4586,-5.03956 16.9737,-6.56894 23.9182,-6.63272 10.7723,-0.0989 13.7322,2.3864 14.9245,12.53166 l 0.6445,5.48307 -12.8734,0.48528 c -24.7419,0.93268 -36.5135,8.17392 -38.8737,23.91309 -2.0425,13.62056 6.6917,26.74492 19.8984,29.90001 4.6083,1.10092 15.6024,1.07344 19.6431,-0.0491 z m -11.185,-18.5215 c -5.0422,-2.73919 -5.8331,-10.51737 -1.5491,-15.23512 2.7375,-3.01469 7.6153,-4.23619 16.943,-4.2429 l 7.75,-0.006 v 5.79705 c 0,5.38443 -0.2669,6.05638 -3.75,9.44046 -2.0625,2.00388 -5.0168,4.12021 -6.5651,4.70295 -3.8909,1.46444 -9.6711,1.2586 -12.8288,-0.45686 z m 212.28,16.62073 c 2.5499,-1.21964 6.4464,-3.76706 8.659,-5.66093 2.2126,-1.89387 4.2888,-3.4434 4.6139,-3.4434 0.325,0 0.591,2.00766 0.591,4.46146 0,4.40228 0.056,4.47666 4.25,5.60782 5.438,1.46681 13.8436,0.52176 15.5,-1.74268 0.9673,-1.32236 1.25,-15.34408 1.25,-61.99468 V 59.04611 l -2.4846,-1.62799 c -1.8025,-1.18101 -4.7167,-1.61335 -10.6142,-1.57468 C 1494.5327,55.92454 1495,54.96519 1495,80.27696 v 20.96698 l -2.25,-1.65583 c -1.2375,-0.91072 -4.725,-2.8781 -7.75,-4.37198 -10.6345,-5.25177 -25.4713,-2.88727 -35.1375,5.59976 -4.545,3.9905 -9.3973,13.10887 -11.3227,21.27718 -1.9454,8.25287 -1.9623,26.48971 -0.032,34.67609 3.2745,13.88821 10.8874,23.29104 21.7142,26.81943 6.3275,2.0621 19.0896,1.30181 24.9143,-1.48426 z M 1471.03,162.72069 c -3.1614,-1.59971 -6.7322,-6.90089 -8.1201,-12.05529 -0.5972,-2.21789 -0.9338,-8.33742 -0.7479,-13.59896 0.5474,-15.49398 5.7941,-23.45946 15.3569,-23.31489 5.2019,0.0786 11.0297,3.47906 15.0932,8.80652 2.238,2.93421 2.3879,3.95785 2.3879,16.30866 v 13.17796 l -4.0397,4.38255 c -6.4761,7.02572 -13.8694,9.36032 -19.9303,6.29345 z M 557.61516,181.90443 C 558.75475,180.95865 559,173.31246 559,138.72959 V 96.70407 l 5.37044,10.89796 c 2.95375,5.99389 12.18902,23.72297 20.52284,39.39797 10.84583,20.39983 16.27176,29.56581 19.09083,32.25 l 3.93844,3.75 h 10.58418 c 9.90419,0 10.74187,-0.15769 13.03872,-2.45455 L 634,178.09091 V 122.08064 C 634,57.50712 635.26586,64 622.67653,64 609.97072,64 610.87076,60.69551 611.21087,106.09575 L 611.5,144.69151 600.3746,123.09575 C 580.86267,85.22073 573.3422,71.58178 570.16982,68.31704 c -3.68903,-3.79643 -8.11623,-4.68874 -20.69921,-4.17199 -8.03073,0.32981 -8.81558,0.55468 -11.06557,3.17046 l -2.42177,2.81547 0.25836,55.68451 L 536.5,181.5 l 3.5,1.25667 c 4.04631,1.45283 15.50576,0.8984 17.61516,-0.85224 z m 236.06423,0.26716 c 1.50757,-0.80683 2.6394,-3.44874 4.23544,-9.88633 1.19794,-4.83189 4.03342,-15.92927 6.30105,-24.66084 l 4.12298,-15.87559 6.68085,24.17587 c 3.67447,13.29672 7.14321,24.63822 7.70831,25.20332 3.61122,3.61122 24.88803,3.65593 28.4841,0.0599 0.86148,-0.86148 19.42493,-62.48185 23.39545,-77.65991 1.53353,-5.86224 1.52189,-6.00472 -0.63344,-7.75 -2.70331,-2.18901 -17.51838,-2.56292 -20.32195,-0.5129 -1.18059,0.86326 -4.09446,10.31234 -9.1742,29.75 -4.09426,15.66671 -7.48557,28.93493 -7.53624,29.48493 -0.0507,0.55 -3.60857,-11.825 -7.90641,-27.5 -4.29785,-15.675 -8.12014,-29.24316 -8.49398,-30.15146 -0.90146,-2.19027 -3.60065,-2.81847 -12.18057,-2.83488 -5.33063,-0.0102 -7.68249,0.42967 -9.28375,1.73634 -1.69635,1.38427 -3.66086,7.77894 -9.39996,30.5978 l -7.25542,28.8478 -7.85593,-29.14274 C 768.41353,103.23046 766.25925,96.59461 764.63239,95.45511 762.16685,93.72818 746.95317,93.41955 743.93426,95.03522 742.87042,95.60454 742,97.11451 742,98.39069 c 0,3.89284 22.87341,80.81195 24.59756,82.71711 0.88653,0.97961 3.02725,1.987 4.75716,2.23865 5.30562,0.77182 20.14663,-0.009 22.32467,-1.17486 z m 432.31511,-0.16863 C 1227.9684,180.94653 1228,179.9626 1228,119.5 c 0,-59.98484 -0.046,-61.4543 -1.9597,-62.47842 -5.1341,-2.74772 -18.551,-2.36798 -21.5284,0.60933 -1.3161,1.31614 -1.5119,9.39479 -1.5119,62.3815 0,45.17974 0.2997,61.05478 1.1627,61.58815 3.9451,2.43823 17.5589,2.68916 21.8318,0.4024 z m 138,0 c 1.9334,-1.03473 2.0055,-2.07129 2.0055,-28.82574 v -27.7524 l 4.75,-4.65551 c 9.1891,-9.00629 17.3645,-9.15841 22.3737,-0.41632 2.3223,4.05282 2.3838,4.78738 2.7071,32.34163 0.2834,24.15148 0.5564,28.38182 1.9037,29.5 2.2107,1.83471 18.3837,1.78209 20.6118,-0.0671 1.4706,-1.22052 1.6537,-4.67455 1.6537,-31.20078 0,-37.12831 -1.0064,-42.71007 -9.1698,-50.85553 -5.3062,-5.29462 -11.0809,-7.41741 -20.3302,-7.47347 -9.1135,-0.0552 -15.5073,2.32581 -23.5,8.75143 l -4.5,3.6177 -0.2969,-4.23345 c -0.1729,-2.46466 -0.9839,-4.75573 -1.9411,-5.48346 -2.4063,-1.82931 -14.2954,-1.61531 -17.0395,0.3067 L 1341,97.11337 v 41.88428 c 0,30.75168 0.309,42.07527 1.1627,42.60287 3.9451,2.43823 17.5589,2.68916 21.8318,0.4024 z m -359.0297,-0.93722 c 1.2926,-2.41525 1.3354,-15.04169 0.058,-17.06574 -0.7849,-1.24348 -5.14009,-1.58551 -25.46689,-2 l -24.5202,-0.5 21.0989,-33.5 C 1005.1903,81.86678 1003.5,85.09941 1003.5,75.6638 1003.5,63.30664 1005.8513,64 963.94591,64 h -34.8325 l -1.55671,2.22251 c -2.23524,3.19126 -2.1112,13.88708 0.1933,16.66681 1.67209,2.01692 2.73797,2.12202 23.94089,2.36079 l 22.19092,0.24989 -7.582,12 c -38.11617,60.32644 -41.00227,65.19937 -41.69105,70.39169 -0.79393,5.98488 0.70071,12.60508 3.17087,14.04479 1.06365,0.61994 15.92651,1.01431 38.93518,1.03311 35.78629,0.0292 37.25459,-0.0438 38.24999,-1.90385 z"
       id="path827" />
  </g>
</svg>
