<svg width="781" height="756" xmlns="http://www.w3.org/2000/svg" xmlns:xlink="http://www.w3.org/1999/xlink" xml:space="preserve" overflow="hidden"><defs><clipPath id="clip0"><rect x="1664" y="876" width="781" height="756"/></clipPath><clipPath id="clip1"><rect x="1763" y="939" width="604" height="604"/></clipPath><clipPath id="clip2"><rect x="1763" y="939" width="604" height="604"/></clipPath><clipPath id="clip3"><rect x="1763" y="939" width="604" height="604"/></clipPath><clipPath id="clip4"><rect x="2016" y="1127" width="104" height="103"/></clipPath><clipPath id="clip5"><rect x="2016" y="1127" width="104" height="103"/></clipPath><clipPath id="clip6"><rect x="2016" y="1127" width="104" height="103"/></clipPath><clipPath id="clip7"><rect x="2018" y="1379" width="104" height="104"/></clipPath><clipPath id="clip8"><rect x="2018" y="1379" width="104" height="104"/></clipPath><clipPath id="clip9"><rect x="2018" y="1379" width="104" height="104"/></clipPath><clipPath id="clip10"><rect x="2021" y="1257" width="93" height="91"/></clipPath><clipPath id="clip11"><rect x="2021" y="1257" width="93" height="91"/></clipPath><clipPath id="clip12"><rect x="2021" y="1257" width="93" height="91"/></clipPath></defs><g clip-path="url(#clip0)" transform="translate(-1664 -876)"><g clip-path="url(#clip1)"><g clip-path="url(#clip2)"><g clip-path="url(#clip3)"><path d="M2240.38 1052.06C2240.38 1079.81 2161.63 1102.31 2064.5 1102.31 1967.37 1102.31 1888.63 1079.81 1888.63 1052.06 1888.63 1024.31 1967.37 1001.81 2064.5 1001.81 2161.63 1001.81 2240.38 1024.31 2240.38 1052.06Z" fill="#548235"/><path d="M2190.12 1177.69C2182.59 1177.69 2177.56 1172.66 2177.56 1165.13 2177.56 1157.59 2182.59 1152.56 2190.12 1152.56 2197.66 1152.56 2202.69 1157.59 2202.69 1165.13 2202.69 1172.66 2197.66 1177.69 2190.12 1177.69ZM2064.5 1127.44C1967.77 1127.44 1888.63 1104.83 1888.63 1077.19L1888.63 1177.69C1888.63 1205.33 1967.77 1227.94 2064.5 1227.94 2161.23 1227.94 2240.38 1205.33 2240.38 1177.69L2240.38 1077.19C2240.38 1104.83 2161.23 1127.44 2064.5 1127.44Z" fill="#548235"/><path d="M2190.12 1303.31C2182.59 1303.31 2177.56 1298.29 2177.56 1290.75 2177.56 1283.21 2182.59 1278.19 2190.12 1278.19 2197.66 1278.19 2202.69 1283.21 2202.69 1290.75 2202.69 1298.29 2197.66 1303.31 2190.12 1303.31ZM2064.5 1253.06C1967.77 1253.06 1888.63 1230.45 1888.63 1202.81L1888.63 1303.31C1888.63 1330.95 1967.77 1353.56 2064.5 1353.56 2161.23 1353.56 2240.38 1330.95 2240.38 1303.31L2240.38 1202.81C2240.38 1230.45 2161.23 1253.06 2064.5 1253.06Z" fill="#548235"/><path d="M2190.12 1428.94C2182.59 1428.94 2177.56 1423.91 2177.56 1416.38 2177.56 1408.84 2182.59 1403.81 2190.12 1403.81 2197.66 1403.81 2202.69 1408.84 2202.69 1416.38 2202.69 1423.91 2197.66 1428.94 2190.12 1428.94ZM2064.5 1378.69C1967.77 1378.69 1888.63 1356.08 1888.63 1328.44L1888.63 1428.94C1888.63 1456.58 1967.77 1479.19 2064.5 1479.19 2161.23 1479.19 2240.38 1456.58 2240.38 1428.94L2240.38 1328.44C2240.38 1356.08 2161.23 1378.69 2064.5 1378.69Z" fill="#548235"/></g></g></g><path d="M1674.5 1254C1674.5 1051.04 1844.63 886.5 2054.5 886.5 2264.37 886.5 2434.5 1051.04 2434.5 1254 2434.5 1456.96 2264.37 1621.5 2054.5 1621.5 1844.63 1621.5 1674.5 1456.96 1674.5 1254Z" stroke="#548235" stroke-width="20.625" stroke-miterlimit="8" fill="none" fill-rule="evenodd"/><g clip-path="url(#clip4)"><g clip-path="url(#clip5)"><g clip-path="url(#clip6)"><path d="M51.4999 47.2082C46.1353 47.2082 41.8437 42.9166 41.8437 37.552 41.8437 32.1874 46.1353 27.8958 51.4999 27.8958 56.8645 27.8958 61.1561 32.1874 61.1561 37.552 61.1561 42.9166 56.8645 47.2082 51.4999 47.2082ZM51.4999 15.0208C44.0968 15.0208 37.1228 18.6687 32.9385 24.8916 28.7541 31.0072 27.8958 38.8395 30.5781 45.8134L40.7707 68.3446 49.5686 86.7988C49.8905 87.5498 50.6416 87.979 51.4999 87.979 52.3582 87.979 53.1093 87.5498 53.4311 86.7988L62.229 68.3446 72.4217 45.8134C75.104 38.8395 74.2457 31.0072 70.0613 24.8916 65.8769 18.6687 58.903 15.0208 51.4999 15.0208Z" stroke="#FFFFFF" stroke-width="1.35526" fill="#FFFFFF" transform="matrix(1.00971 0 0 1 2016 1127)"/></g></g></g><g clip-path="url(#clip7)"><g clip-path="url(#clip8)"><g clip-path="url(#clip9)"><path d="M51.5001 47.2084C46.1355 47.2084 41.8438 42.9167 41.8438 37.5521 41.8438 32.1875 46.1355 27.8959 51.5001 27.8959 56.8647 27.8959 61.1563 32.1875 61.1563 37.5521 61.1563 42.9167 56.8647 47.2084 51.5001 47.2084ZM51.5001 15.0209C44.0969 15.0209 37.123 18.6688 32.9386 24.8917 28.7542 31.0073 27.8959 38.8396 30.5782 45.8136L40.7709 68.3449 49.5688 86.7991C49.8907 87.5501 50.6417 87.9793 51.5001 87.9793 52.3584 87.9793 53.1094 87.5501 53.4313 86.7991L62.2292 68.3449 72.422 45.8136C75.1043 38.8396 74.2459 31.0073 70.0616 24.8917 65.8772 18.6688 58.9032 15.0209 51.5001 15.0209Z" stroke="#FFFFFF" stroke-width="1.35527" fill="#FFFFFF" transform="matrix(1 0 0 1.00971 2019 1379)"/></g></g></g><g clip-path="url(#clip10)"><g clip-path="url(#clip11)"><g clip-path="url(#clip12)"><path d="M21.802 13.2708 69.1977 13.2708 69.1977 77.7289 21.802 77.7289 21.802 13.2708ZM16.1145 83.4164 74.8852 83.4164 74.8852 7.58331 16.1145 7.58331 16.1145 83.4164Z" fill="#FFFFFF" transform="matrix(1 0 0 1 2022 1257)"/><path d="M47.3957 21.802 63.5102 21.802 63.5102 25.5937 47.3957 25.5937Z" fill="#FFFFFF" transform="matrix(1 0 0 1 2022 1257)"/><path d="M47.3957 36.9686 63.5102 36.9686 63.5102 40.7603 47.3957 40.7603Z" fill="#FFFFFF" transform="matrix(1 0 0 1 2022 1257)"/><path d="M47.3957 67.3019 63.5102 67.3019 63.5102 71.0935 47.3957 71.0935Z" fill="#FFFFFF" transform="matrix(1 0 0 1 2022 1257)"/><path d="M47.3957 52.1353 63.5102 52.1353 63.5102 55.9269 47.3957 55.9269Z" fill="#FFFFFF" transform="matrix(1 0 0 1 2022 1257)"/><path d="M41.5186 19.7166 38.8645 17.0625 32.6082 23.3187 30.1437 20.8541 27.4895 23.5083 32.6082 28.627Z" fill="#FFFFFF" transform="matrix(1 0 0 1 2022 1257)"/><path d="M41.5186 34.8832 38.8645 32.2291 32.6082 38.4853 30.1437 36.0207 27.4895 38.6749 32.6082 43.7936Z" fill="#FFFFFF" transform="matrix(1 0 0 1 2022 1257)"/><path d="M41.5186 50.0499 38.8645 47.3957 32.6082 53.6519 30.1437 51.1874 27.4895 53.8415 32.6082 58.9602Z" fill="#FFFFFF" transform="matrix(1 0 0 1 2022 1257)"/><path d="M41.5186 65.0269 38.8645 62.3727 32.6082 68.629 30.1437 66.1644 27.4895 68.8186 32.6082 73.9373Z" fill="#FFFFFF" transform="matrix(1 0 0 1 2022 1257)"/></g></g></g><path d="M2171.5 1163.5C2171.5 1150.8 2179.78 1140.5 2190 1140.5 2200.22 1140.5 2208.5 1150.8 2208.5 1163.5 2208.5 1176.2 2200.22 1186.5 2190 1186.5 2179.78 1186.5 2171.5 1176.2 2171.5 1163.5Z" stroke="#548235" stroke-width="4.58333" stroke-miterlimit="8" fill="#548235" fill-rule="evenodd"/><path d="M2176.5 1299.5C2176.5 1286.8 2184.78 1276.5 2195 1276.5 2205.22 1276.5 2213.5 1286.8 2213.5 1299.5 2213.5 1312.2 2205.22 1322.5 2195 1322.5 2184.78 1322.5 2176.5 1312.2 2176.5 1299.5Z" stroke="#548235" stroke-width="4.58333" stroke-miterlimit="8" fill="#548235" fill-rule="evenodd"/><path d="M2171.5 1414.5C2171.5 1401.8 2179.78 1391.5 2190 1391.5 2200.22 1391.5 2208.5 1401.8 2208.5 1414.5 2208.5 1427.2 2200.22 1437.5 2190 1437.5 2179.78 1437.5 2171.5 1427.2 2171.5 1414.5Z" stroke="#548235" stroke-width="4.58333" stroke-miterlimit="8" fill="#548235" fill-rule="evenodd"/></g></svg>