<svg width="780" height="756" xmlns="http://www.w3.org/2000/svg" xmlns:xlink="http://www.w3.org/1999/xlink" xml:space="preserve" overflow="hidden"><defs><clipPath id="clip0"><rect x="30" y="810" width="780" height="756"/></clipPath><clipPath id="clip1"><rect x="147" y="915" width="545" height="546"/></clipPath><clipPath id="clip2"><rect x="147" y="915" width="545" height="546"/></clipPath><clipPath id="clip3"><rect x="147" y="915" width="545" height="546"/></clipPath></defs><g clip-path="url(#clip0)" transform="translate(-30 -810)"><g clip-path="url(#clip1)"><g clip-path="url(#clip2)"><g clip-path="url(#clip3)"><path d="M130.573 79.4791 414.427 79.4791 414.427 465.521 130.573 465.521 130.573 79.4791ZM96.5104 499.583 448.489 499.583 448.489 45.4167 96.5104 45.4167 96.5104 499.583Z" fill="#548235" transform="matrix(1 0 0 1.00183 147 915)"/><path d="M283.854 130.573 380.364 130.573 380.364 153.281 283.854 153.281Z" fill="#548235" transform="matrix(1 0 0 1.00183 147 915)"/><path d="M283.854 221.406 380.364 221.406 380.364 244.115 283.854 244.115Z" fill="#548235" transform="matrix(1 0 0 1.00183 147 915)"/><path d="M283.854 403.073 380.364 403.073 380.364 425.781 283.854 425.781Z" fill="#548235" transform="matrix(1 0 0 1.00183 147 915)"/><path d="M283.854 312.24 380.364 312.24 380.364 334.948 283.854 334.948Z" fill="#548235" transform="matrix(1 0 0 1.00183 147 915)"/><path d="M248.656 118.083 232.76 102.187 195.292 139.656 180.531 124.896 164.635 140.792 195.292 171.448Z" fill="#548235" transform="matrix(1 0 0 1.00183 147 915)"/><path d="M248.656 208.917 232.76 193.021 195.292 230.49 180.531 215.729 164.635 231.625 195.292 262.281Z" fill="#548235" transform="matrix(1 0 0 1.00183 147 915)"/><path d="M248.656 299.75 232.76 283.854 195.292 321.323 180.531 306.562 164.635 322.458 195.292 353.114Z" fill="#548235" transform="matrix(1 0 0 1.00183 147 915)"/><path d="M248.656 389.448 232.76 373.552 195.292 411.021 180.531 396.26 164.635 412.156 195.292 442.812Z" fill="#548235" transform="matrix(1 0 0 1.00183 147 915)"/></g></g></g><path d="M40.5001 1188C40.5001 985.035 210.408 820.5 420 820.5 629.592 820.5 799.5 985.035 799.5 1188 799.5 1390.96 629.592 1555.5 420 1555.5 210.408 1555.5 40.5001 1390.96 40.5001 1188Z" stroke="#548235" stroke-width="20.625" stroke-miterlimit="8" fill="none" fill-rule="evenodd"/></g></svg>