<svg width="862" height="786" xmlns="http://www.w3.org/2000/svg" xmlns:xlink="http://www.w3.org/1999/xlink" xml:space="preserve" overflow="hidden"><defs><clipPath id="clip0"><rect x="2463" y="888" width="862" height="786"/></clipPath><clipPath id="clip1"><rect x="2781" y="914" width="545" height="544"/></clipPath><clipPath id="clip2"><rect x="2781" y="914" width="545" height="544"/></clipPath><clipPath id="clip3"><rect x="2781" y="914" width="545" height="544"/></clipPath><clipPath id="clip4"><rect x="2462" y="939" width="736" height="736"/></clipPath><clipPath id="clip5"><rect x="2462" y="939" width="736" height="736"/></clipPath><clipPath id="clip6"><rect x="2462" y="939" width="736" height="736"/></clipPath></defs><g clip-path="url(#clip0)" transform="translate(-2463 -888)"><path d="M2531.5 1266C2531.5 1063.04 2701.63 898.5 2911.5 898.5 3121.37 898.5 3291.5 1063.04 3291.5 1266 3291.5 1468.96 3121.37 1633.5 2911.5 1633.5 2701.63 1633.5 2531.5 1468.96 2531.5 1266Z" stroke="#548235" stroke-width="20.625" stroke-miterlimit="8" fill="none" fill-rule="evenodd"/><g clip-path="url(#clip1)"><g clip-path="url(#clip2)"><g clip-path="url(#clip3)"><path d="M3053.5 1162.88C3025.22 1162.88 3002.59 1140.25 3002.59 1111.97 3002.59 1083.69 3025.22 1061.06 3053.5 1061.06 3081.78 1061.06 3104.41 1083.69 3104.41 1111.97 3104.41 1140.25 3081.78 1162.88 3053.5 1162.88ZM3053.5 993.188C3014.47 993.188 2977.71 1012.42 2955.65 1045.23 2933.59 1077.47 2929.06 1118.76 2943.2 1155.52L2996.94 1274.3 3043.32 1371.59C3045.02 1375.55 3048.98 1377.81 3053.5 1377.81 3058.03 1377.81 3061.98 1375.55 3063.68 1371.59L3110.06 1274.3 3163.8 1155.52C3177.94 1118.76 3173.41 1077.47 3151.35 1045.23 3129.29 1012.42 3092.53 993.188 3053.5 993.188Z" stroke="#FFFFFF" stroke-width="20.7516" fill="#548235"/></g></g></g><g clip-path="url(#clip4)"><g clip-path="url(#clip5)"><g clip-path="url(#clip6)"><path d="M2830.5 1275.88C2792.22 1275.88 2761.59 1245.25 2761.59 1206.97 2761.59 1168.69 2792.22 1138.06 2830.5 1138.06 2868.78 1138.06 2899.41 1168.69 2899.41 1206.97 2899.41 1245.25 2868.78 1275.88 2830.5 1275.88ZM2830.5 1046.19C2777.67 1046.19 2727.91 1072.22 2698.05 1116.63 2668.19 1160.27 2662.06 1216.16 2681.2 1265.92L2753.94 1426.7 2816.72 1558.39C2819.02 1563.75 2824.38 1566.81 2830.5 1566.81 2836.62 1566.81 2841.98 1563.75 2844.28 1558.39L2907.06 1426.7 2979.8 1265.92C2998.94 1216.16 2992.81 1160.27 2962.95 1116.63 2933.09 1072.22 2883.33 1046.19 2830.5 1046.19Z" stroke="#FFFFFF" stroke-width="20.7043" fill="#548235"/></g></g></g></g></svg>