<svg width="781" height="801" xmlns="http://www.w3.org/2000/svg" xmlns:xlink="http://www.w3.org/1999/xlink" xml:space="preserve" overflow="hidden"><defs><clipPath id="clip0"><rect x="833" y="869" width="781" height="801"/></clipPath><clipPath id="clip1"><rect x="937" y="1085" width="598" height="585"/></clipPath><clipPath id="clip2"><rect x="937" y="1085" width="598" height="585"/></clipPath><clipPath id="clip3"><rect x="937" y="1085" width="598" height="585"/></clipPath><clipPath id="clip4"><rect x="1061" y="931" width="386" height="386"/></clipPath><clipPath id="clip5"><rect x="1061" y="931" width="386" height="386"/></clipPath><clipPath id="clip6"><rect x="1061" y="931" width="386" height="386"/></clipPath><clipPath id="clip7"><rect x="1218" y="1051" width="65" height="66"/></clipPath><clipPath id="clip8"><rect x="1218" y="1051" width="65" height="66"/></clipPath><clipPath id="clip9"><rect x="1218" y="1051" width="65" height="66"/></clipPath><clipPath id="clip10"><rect x="1218" y="1137" width="65" height="65"/></clipPath><clipPath id="clip11"><rect x="1218" y="1137" width="65" height="65"/></clipPath><clipPath id="clip12"><rect x="1218" y="1137" width="65" height="65"/></clipPath><clipPath id="clip13"><rect x="1224" y="1214" width="57" height="57"/></clipPath><clipPath id="clip14"><rect x="1224" y="1214" width="57" height="57"/></clipPath><clipPath id="clip15"><rect x="1224" y="1214" width="57" height="57"/></clipPath></defs><g clip-path="url(#clip0)" transform="translate(-833 -869)"><path d="M843.5 1247C843.5 1044.04 1013.63 879.5 1223.5 879.5 1433.37 879.5 1603.5 1044.04 1603.5 1247 1603.5 1449.96 1433.37 1614.5 1223.5 1614.5 1013.63 1614.5 843.5 1449.96 843.5 1247Z" stroke="#548235" stroke-width="20.625" stroke-miterlimit="8" fill="none" fill-rule="evenodd"/><g clip-path="url(#clip1)"><g clip-path="url(#clip2)"><g clip-path="url(#clip3)"><path d="M559.667 203.792C559.667 190.408 548.717 179.458 535.333 179.458 530.467 179.458 526.208 180.675 522.558 183.108L418.533 242.725C419.75 249.417 419.75 256.108 418.533 263.408 413.667 285.917 392.375 301.733 369.258 301.733L261.583 301.733 261.583 277.4 371.083 277.4C384.467 277.4 395.417 266.45 395.417 253.067 395.417 239.683 384.467 228.733 371.083 228.733 371.083 228.733 226.3 228.733 225.083 228.733 214.742 228.733 205.008 231.775 196.492 236.642L24.3333 319.375 109.5 404.542C149.042 365 200.142 349.792 255.5 349.792L369.258 349.792C374.733 349.792 379.6 347.967 383.858 344.925L551.15 222.65C556.017 217.783 559.667 211.092 559.667 203.792Z" fill="#548235" transform="matrix(1.02397 0 0 1 937 1086)"/></g></g></g><g clip-path="url(#clip4)"><g clip-path="url(#clip5)"><g clip-path="url(#clip6)"><path d="M1366.79 1004.19C1366.79 1021.91 1316.52 1036.27 1254.5 1036.27 1192.48 1036.27 1142.21 1021.91 1142.21 1004.19 1142.21 986.468 1192.48 972.104 1254.5 972.104 1316.52 972.104 1366.79 986.468 1366.79 1004.19Z" fill="#548235"/><path d="M1334.71 1084.4C1329.9 1084.4 1326.69 1081.19 1326.69 1076.37 1326.69 1071.56 1329.9 1068.35 1334.71 1068.35 1339.52 1068.35 1342.73 1071.56 1342.73 1076.37 1342.73 1081.19 1339.52 1084.4 1334.71 1084.4ZM1254.5 1052.31C1192.74 1052.31 1142.21 1037.87 1142.21 1020.23L1142.21 1084.4C1142.21 1102.04 1192.74 1116.48 1254.5 1116.48 1316.26 1116.48 1366.79 1102.04 1366.79 1084.4L1366.79 1020.23C1366.79 1037.87 1316.26 1052.31 1254.5 1052.31Z" fill="#548235"/><path d="M1334.71 1164.6C1329.9 1164.6 1326.69 1161.4 1326.69 1156.58 1326.69 1151.77 1329.9 1148.56 1334.71 1148.56 1339.52 1148.56 1342.73 1151.77 1342.73 1156.58 1342.73 1161.4 1339.52 1164.6 1334.71 1164.6ZM1254.5 1132.52C1192.74 1132.52 1142.21 1118.08 1142.21 1100.44L1142.21 1164.6C1142.21 1182.25 1192.74 1196.69 1254.5 1196.69 1316.26 1196.69 1366.79 1182.25 1366.79 1164.6L1366.79 1100.44C1366.79 1118.08 1316.26 1132.52 1254.5 1132.52Z" fill="#548235"/><path d="M1334.71 1244.81C1329.9 1244.81 1326.69 1241.6 1326.69 1236.79 1326.69 1231.98 1329.9 1228.77 1334.71 1228.77 1339.52 1228.77 1342.73 1231.98 1342.73 1236.79 1342.73 1241.6 1339.52 1244.81 1334.71 1244.81ZM1254.5 1212.73C1192.74 1212.73 1142.21 1198.29 1142.21 1180.65L1142.21 1244.81C1142.21 1262.46 1192.74 1276.9 1254.5 1276.9 1316.26 1276.9 1366.79 1262.46 1366.79 1244.81L1366.79 1180.65C1366.79 1198.29 1316.26 1212.73 1254.5 1212.73Z" fill="#548235"/></g></g></g><path d="M1312.5 1074.5C1312.5 1064.56 1320.78 1056.5 1331 1056.5 1341.22 1056.5 1349.5 1064.56 1349.5 1074.5 1349.5 1084.44 1341.22 1092.5 1331 1092.5 1320.78 1092.5 1312.5 1084.44 1312.5 1074.5Z" stroke="#548235" stroke-width="4.58333" stroke-miterlimit="8" fill="#548235" fill-rule="evenodd"/><path d="M1323.5 1157.5C1323.5 1147.56 1331.78 1139.5 1342 1139.5 1352.22 1139.5 1360.5 1147.56 1360.5 1157.5 1360.5 1167.44 1352.22 1175.5 1342 1175.5 1331.78 1175.5 1323.5 1167.44 1323.5 1157.5Z" stroke="#548235" stroke-width="4.58333" stroke-miterlimit="8" fill="#548235" fill-rule="evenodd"/><path d="M1321.5 1238C1321.5 1228.34 1329.78 1220.5 1340 1220.5 1350.22 1220.5 1358.5 1228.34 1358.5 1238 1358.5 1247.66 1350.22 1255.5 1340 1255.5 1329.78 1255.5 1321.5 1247.66 1321.5 1238Z" stroke="#548235" stroke-width="4.58333" stroke-miterlimit="8" fill="#548235" fill-rule="evenodd"/><g clip-path="url(#clip7)"><g clip-path="url(#clip8)"><g clip-path="url(#clip9)"><path d="M32 29.3333C28.6666 29.3333 26 26.6666 26 23.3333 26 20 28.6666 17.3333 32 17.3333 35.3333 17.3333 38 20 38 23.3333 38 26.6666 35.3333 29.3333 32 29.3333ZM32 9.33332C27.4 9.33332 23.0666 11.6 20.4666 15.4667 17.8666 19.2666 17.3333 24.1333 19 28.4666L25.3333 42.4666 30.8 53.9333C31 54.3999 31.4666 54.6666 32 54.6666 32.5333 54.6666 33 54.3999 33.2 53.9333L38.6666 42.4666 45 28.4666C46.6666 24.1333 46.1333 19.2666 43.5333 15.4667 40.9333 11.6 36.6 9.33332 32 9.33332Z" stroke="#FFFFFF" stroke-width="0.842106" fill="#FFFFFF" transform="matrix(1 0 0 1.00001 1219 1052)"/></g></g></g><g clip-path="url(#clip10)"><g clip-path="url(#clip11)"><g clip-path="url(#clip12)"><path d="M1251 1166.33C1247.67 1166.33 1245 1163.67 1245 1160.33 1245 1157 1247.67 1154.33 1251 1154.33 1254.33 1154.33 1257 1157 1257 1160.33 1257 1163.67 1254.33 1166.33 1251 1166.33ZM1251 1146.33C1246.4 1146.33 1242.07 1148.6 1239.47 1152.47 1236.87 1156.27 1236.33 1161.13 1238 1165.47L1244.33 1179.47 1249.8 1190.93C1250 1191.4 1250.47 1191.67 1251 1191.67 1251.53 1191.67 1252 1191.4 1252.2 1190.93L1257.67 1179.47 1264 1165.47C1265.67 1161.13 1265.13 1156.27 1262.53 1152.47 1259.93 1148.6 1255.6 1146.33 1251 1146.33Z" stroke="#FFFFFF" stroke-width="0.842106" fill="#FFFFFF"/></g></g></g><g clip-path="url(#clip13)"><g clip-path="url(#clip14)"><g clip-path="url(#clip15)"><path d="M1237.42 1222.17 1266.58 1222.17 1266.58 1261.83 1237.42 1261.83 1237.42 1222.17ZM1233.92 1265.33 1270.08 1265.33 1270.08 1218.67 1233.92 1218.67 1233.92 1265.33Z" fill="#FFFFFF"/><path d="M1253.17 1227.42 1263.08 1227.42 1263.08 1229.75 1253.17 1229.75Z" fill="#FFFFFF"/><path d="M1253.17 1236.75 1263.08 1236.75 1263.08 1239.08 1253.17 1239.08Z" fill="#FFFFFF"/><path d="M1253.17 1255.42 1263.08 1255.42 1263.08 1257.75 1253.17 1257.75Z" fill="#FFFFFF"/><path d="M1253.17 1246.08 1263.08 1246.08 1263.08 1248.42 1253.17 1248.42Z" fill="#FFFFFF"/><path d="M1249.55 1226.13 1247.92 1224.5 1244.07 1228.35 1242.55 1226.83 1240.92 1228.47 1244.07 1231.62Z" fill="#FFFFFF"/><path d="M1249.55 1235.47 1247.92 1233.83 1244.07 1237.68 1242.55 1236.17 1240.92 1237.8 1244.07 1240.95Z" fill="#FFFFFF"/><path d="M1249.55 1244.8 1247.92 1243.17 1244.07 1247.02 1242.55 1245.5 1240.92 1247.13 1244.07 1250.28Z" fill="#FFFFFF"/><path d="M1249.55 1254.02 1247.92 1252.38 1244.07 1256.23 1242.55 1254.72 1240.92 1256.35 1244.07 1259.5Z" fill="#FFFFFF"/></g></g></g></g></svg>